<svg width="453" height="325" viewBox="0 0 453 325" fill="none" xmlns="http://www.w3.org/2000/svg">
<g clip-path="url(#clip0_1_614)">
<path d="M500 152.597C500 179.444 479.358 201.686 452.669 203.791C452.209 203.791 451.814 203.857 451.354 203.857V155.163C451.354 154.176 450.894 153.255 450.171 152.597C450.105 152.531 450.105 152.531 450.039 152.465C449.974 152.399 449.974 152.399 449.908 152.333C448.988 151.741 447.804 151.61 446.753 152.07L446.227 150.886C446.818 150.623 447.476 150.491 448.133 150.491L410.663 118.182C410.926 117.853 411.254 117.524 411.583 117.195C431.107 96.5985 463.516 95.7431 484.092 115.286C494.215 125.025 500 138.515 500 152.597Z" fill="#E3EBF1"/>
<path d="M13.016 187.604C12.2929 183.985 14.6595 180.497 18.2751 179.839C18.6695 179.773 19.0639 179.707 19.4583 179.707L49.0402 144.503L56.4029 153.979L26.295 186.748C26.0978 190.433 23.0082 193.263 19.3269 193.065C16.1715 192.868 13.5419 190.631 13.016 187.604Z" fill="#FFB8B8"/>
<path d="M153.366 144.24C153.169 144.569 152.971 144.832 152.84 145.161L120.563 149.767L115.632 143.516L105.246 149.701L114.975 164.902L154.352 153.255C157.179 155.821 161.517 155.624 164.081 152.794C166.645 149.965 166.448 145.622 163.621 143.055C160.794 140.489 156.455 140.686 153.892 143.516C153.694 143.779 153.497 143.977 153.366 144.24Z" fill="#FFB8B8"/>
<path d="M98.2119 261.895L103.931 267.62L128.583 248.274L120.168 239.851L98.2119 261.895Z" fill="#FFB8B8"/>
<path d="M109.65 283.873L91.7039 265.975L98.6064 259.066L109.65 270.055C113.463 273.871 113.463 280.057 109.65 283.873Z" fill="#1D2F38"/>
<path d="M67.8412 316.511H75.9269L79.7397 285.387H67.8412V316.511Z" fill="#FFB8B8"/>
<path d="M91.441 324.013H66.132V314.208H81.6461C87.1023 314.208 91.441 318.551 91.441 324.013Z" fill="#1D2F38"/>
<path d="M66.132 292.493L56.9287 224.717C55.4825 214.451 55.9427 204.054 58.2435 193.987C60.1499 185.893 62.6479 180.3 65.8033 177.339C66.3292 176.878 66.9209 176.615 67.5782 176.483L97.8832 173.325C99.0665 173.193 100.25 173.785 100.841 174.838L101.827 176.483C101.959 176.681 102.025 176.878 102.09 177.141L108.467 197.014C108.664 197.606 109.059 198.132 109.65 198.395C119.708 203.528 152.511 220.966 150.671 228.467C148.896 235.508 132.395 246.958 127.399 250.314C126.348 251.038 124.967 250.972 123.981 250.314L115.632 244.589C114.252 243.602 113.857 241.694 114.844 240.312C115.041 240.049 115.304 239.785 115.567 239.588L121.286 235.377C122.338 234.587 122.601 233.073 121.812 232.021C121.549 231.626 121.154 231.363 120.694 231.165L89.8633 220.308C88.6143 219.847 87.2338 220.505 86.7736 221.755C86.7079 221.953 86.6421 222.15 86.6421 222.348L80.9887 291.901C80.8572 293.415 79.6082 294.665 78.0962 294.731L69.2874 295.191C69.2217 295.191 69.1559 295.191 69.1559 295.191C67.644 295.126 66.3292 294.007 66.132 292.493Z" fill="#1D2F38"/>
<path d="M80.0026 117.195C88.9339 117.195 96.1741 109.947 96.1741 101.007C96.1741 92.0672 88.9339 84.8198 80.0026 84.8198C71.0714 84.8198 63.8312 92.0672 63.8312 101.007C63.8312 109.947 71.0714 117.195 80.0026 117.195Z" fill="#FFB8B8"/>
<path d="M64.9487 174.509L53.0502 131.079L53.2474 130.948C53.5104 130.75 79.1481 113.839 109.124 127.46L109.65 127.789L102.616 172.864C102.288 174.97 100.513 176.549 98.4092 176.681L69.4189 177.799C69.3532 177.799 69.2874 177.799 69.2217 177.799C67.1838 177.799 65.4746 176.417 64.9487 174.509Z" fill="#AABCC5"/>
<path d="M52.5901 159.374L42.6637 147.991C41.6776 146.872 41.6776 145.161 42.598 144.042L52.9187 131.277L60.873 133.448L65.0802 148.188L57.3889 159.177C56.863 159.967 55.9427 160.427 55.0224 160.493C54.9566 160.493 54.8909 160.493 54.8251 160.493C54.0363 160.427 53.1817 160.032 52.5901 159.374Z" fill="#AABCC5"/>
<path d="M107.349 157.005C106.429 156.94 105.509 156.479 104.983 155.689L97.2916 144.7L100.973 129.171L108.27 127.197L109.65 127.855L119.774 140.621C120.694 141.805 120.694 143.45 119.708 144.569L109.782 155.953C109.19 156.611 108.336 157.005 107.481 157.005C107.415 157.005 107.349 157.005 107.349 157.005Z" fill="#AABCC5"/>
<path d="M451.354 151.873C451.354 152.005 451.288 152.202 451.223 152.334C450.96 152.597 450.565 152.663 450.302 152.399L448.067 150.491L410.597 118.182L305.548 27.6373C304.299 26.5844 302.459 26.5844 301.275 27.6373L159.874 150.623L158.625 151.741C158.559 151.807 158.493 151.807 158.493 151.873C158.362 151.939 158.296 151.939 158.165 151.939C158.033 151.939 157.836 151.873 157.77 151.741C157.507 151.478 157.573 151.083 157.836 150.82L158.033 150.689L300.421 26.6502C302.13 25.1368 304.694 25.1368 306.469 26.6502L411.517 117.261L451.091 151.412C451.223 151.544 451.288 151.741 451.354 151.873Z" fill="#1D2F38"/>
<path d="M371.483 171.351L369.774 166.613L363.792 150.162L350.973 114.76L336.642 75.1469L310.742 3.68506C309.69 0.789739 306.469 -0.723725 303.576 0.32912L154.023 54.6164C151.131 55.6693 149.619 58.8936 150.671 61.7889L187.352 163.059L187.944 164.77L226.466 182.208L237.313 187.143L239.088 187.933L284.907 208.727L286.682 208.069L316.724 197.145L362.083 180.695L368.196 178.457C371.023 177.47 372.535 174.246 371.483 171.351Z" fill="#C4C4C4"/>
<path d="M308.769 86.9913C307.192 82.7141 302.524 80.5426 298.251 82.0561L239.088 103.508L210.492 113.905C206.219 115.418 204.049 120.156 205.561 124.433C207.073 128.71 211.806 130.882 216.079 129.368L239.022 121.011L303.839 97.5197C308.112 96.0063 310.281 91.2685 308.769 86.9913Z" fill="white"/>
<path d="M319.156 115.747C317.578 111.47 312.911 109.298 308.638 110.812L298.646 114.431L239.088 136.08L220.944 142.66C216.671 144.24 214.502 148.912 216.014 153.189C217.526 157.466 222.259 159.638 226.532 158.124L239.088 153.584L314.226 126.276C314.423 126.21 314.554 126.144 314.752 126.078C318.696 124.367 320.668 119.827 319.156 115.747Z" fill="white"/>
<path d="M329.74 144.832C328.162 140.555 323.495 138.383 319.222 139.897L291.086 150.096L269.327 157.992L239.088 168.981L231.396 171.745C227.781 173.061 225.546 176.746 226.072 180.563C226.137 181.089 226.269 181.681 226.466 182.208L237.313 187.143L239.088 186.485L293.978 166.547L324.809 155.36C329.082 153.847 331.252 149.109 329.74 144.832Z" fill="white"/>
<path d="M268.078 58.6961C266.5 54.4189 261.833 52.2474 257.56 53.7609L223.573 66.066C219.301 67.6453 217.131 72.3173 218.643 76.5945C220.155 80.8717 224.888 83.0431 229.161 81.5297L239.942 77.6473L247.042 75.081L263.147 69.2246C267.42 67.7111 269.656 62.9733 268.078 58.6961Z" fill="white"/>
<path d="M403.694 75.0811H244.61C242.703 75.0811 240.928 76.0681 239.876 77.6474C239.285 78.5686 239.022 79.5556 239.022 80.6743V187.933L284.841 208.727L291.283 211.688L301.473 216.294C302.656 216.82 304.036 216.82 305.285 216.294L315.475 211.688L347.357 197.211L377.071 183.721L409.216 169.113V80.6743C409.282 77.5816 406.784 75.0811 403.694 75.0811Z" fill="#17A550"/>
<path d="M370.826 150.096H277.478C273.074 150.096 269.458 153.584 269.261 157.993C269.261 158.124 269.261 158.19 269.261 158.322C269.261 162.862 272.942 166.547 277.478 166.547H370.826C375.362 166.547 379.043 162.862 379.043 158.322C379.043 153.781 375.362 150.096 370.826 150.096Z" fill="white"/>
<path d="M376.15 182.669C374.638 181.418 372.798 180.695 370.826 180.695H277.478C272.942 180.695 269.261 184.38 269.261 188.92C269.261 193.46 272.942 197.145 277.478 197.145H347.423L377.136 183.656C376.874 183.327 376.545 182.998 376.15 182.669Z" fill="white"/>
<path d="M291.349 211.622L301.538 216.228C302.722 216.754 304.102 216.754 305.351 216.228L315.54 211.622H291.349Z" fill="white"/>
<path d="M349.987 115.023C348.804 111.799 345.714 109.627 342.296 109.627H306.14C302.919 109.627 299.961 111.536 298.646 114.431C298.186 115.484 297.923 116.668 297.923 117.853C297.923 122.393 301.604 126.078 306.14 126.078H342.296C346.831 126.078 350.513 122.393 350.513 117.853C350.447 116.932 350.316 115.945 349.987 115.023Z" fill="white"/>
<path d="M344.202 197.145L312.319 211.622L304.759 215.044C303.905 215.438 302.919 215.438 302.064 215.044L294.504 211.622H291.283L301.473 216.228C302.656 216.754 304.036 216.754 305.285 216.228L315.475 211.622L347.357 197.145H344.202ZM344.202 197.145L312.319 211.622L304.759 215.044C303.905 215.438 302.919 215.438 302.064 215.044L294.504 211.622H291.283L301.473 216.228C302.656 216.754 304.036 216.754 305.285 216.228L315.475 211.622L347.357 197.145H344.202ZM344.202 197.145L312.319 211.622L304.759 215.044C303.905 215.438 302.919 215.438 302.064 215.044L294.504 211.622H291.283L301.473 216.228C302.656 216.754 304.036 216.754 305.285 216.228L315.475 211.622L347.357 197.145H344.202ZM451.354 151.873C451.091 151.61 450.828 151.412 450.565 151.215C449.251 150.359 447.607 150.228 446.161 150.886L376.216 182.603L344.268 197.079L312.385 211.556L304.825 214.978C303.971 215.373 302.984 215.373 302.13 214.978L294.57 211.556L286.682 208.003L239.088 186.419L226.137 180.497L187.352 163.059L160.663 150.952C160.4 150.82 160.137 150.754 159.808 150.688C159.151 150.557 158.493 150.491 157.836 150.623C155.667 151.083 154.155 152.926 154.155 155.163V320.394C154.155 322.96 156.192 325 158.756 325H448.002C450.565 325 452.603 322.96 452.603 320.394V155.097C452.669 153.913 452.143 152.728 451.354 151.873ZM451.354 320.394C451.354 322.236 449.908 323.684 448.067 323.684H158.822C156.981 323.684 155.535 322.236 155.535 320.394V155.097C155.535 153.979 156.127 152.926 157.047 152.334C157.376 152.136 157.704 152.005 158.099 151.873C158.23 151.873 158.296 151.807 158.428 151.807C158.559 151.807 158.69 151.807 158.822 151.807C159.282 151.807 159.742 151.939 160.202 152.136L188.009 164.77L226.532 182.208L237.378 187.143L239.153 187.933L284.972 208.727L291.415 211.688L301.604 216.294C302.787 216.82 304.168 216.82 305.417 216.294L315.606 211.688L347.489 197.211L377.202 183.721L446.753 152.202C447.739 151.741 448.922 151.807 449.908 152.465C449.974 152.465 450.039 152.531 450.039 152.597C450.105 152.663 450.171 152.663 450.171 152.728C450.96 153.321 451.354 154.308 451.354 155.295V320.394ZM344.202 197.145L312.319 211.622L304.759 215.044C303.905 215.438 302.919 215.438 302.064 215.044L294.504 211.622H291.283L301.473 216.228C302.656 216.754 304.036 216.754 305.285 216.228L315.475 211.622L347.357 197.145H344.202ZM344.202 197.145L312.319 211.622L304.759 215.044C303.905 215.438 302.919 215.438 302.064 215.044L294.504 211.622H291.283L301.473 216.228C302.656 216.754 304.036 216.754 305.285 216.228L315.475 211.622L347.357 197.145H344.202ZM237.313 187.143L239.088 187.933V186.485L237.313 187.143ZM344.202 197.145L312.319 211.622L304.759 215.044C303.905 215.438 302.919 215.438 302.064 215.044L294.504 211.622H291.283L301.473 216.228C302.656 216.754 304.036 216.754 305.285 216.228L315.475 211.622L347.357 197.145H344.202Z" fill="#1D2F38"/>
<path d="M115.369 325H41.086C40.6916 325 40.4286 324.737 40.4286 324.342C40.4286 323.947 40.6916 323.684 41.086 323.684H115.369C115.764 323.684 116.027 323.947 116.027 324.342C116.027 324.737 115.764 325 115.369 325Z" fill="#1D2F38"/>
<path d="M73.889 112.852C70.4049 111.075 69.0245 106.864 70.7994 103.376C71.5882 101.797 72.903 100.612 74.5464 100.02C79.411 98.1119 84.8672 101.994 89.9947 100.876C95.0565 99.757 98.0147 93.7031 96.8315 88.6363C95.6482 83.5695 91.178 79.753 86.3134 77.9105C79.8712 75.4758 72.64 76.1338 66.7894 79.6872C60.9387 83.3063 57.2574 89.6234 56.9945 96.5327C56.863 103.442 60.4128 109.956 66.3292 113.51C67.644 114.234 69.1559 114.892 70.6022 114.497C71.7197 114.168 72.8372 113.576 73.889 112.852Z" fill="#1D2F38"/>
<path d="M68.63 79.2925C64.3571 73.5676 58.5065 68.8956 51.8012 66.5925C45.096 64.2894 37.3389 64.4868 31.0281 67.7112C24.7173 70.9355 19.9842 77.5158 19.4583 84.6225C18.6695 96.467 28.7931 106.535 29.7791 118.379C30.8967 130.882 21.6277 141.871 9.13752 142.99C6.04786 143.253 2.89245 142.924 0 141.937C5.12753 146.148 11.8328 148.056 18.4065 147.201C24.9803 146.214 30.8309 142.332 34.1835 136.541C36.4844 132.593 37.4047 127.987 37.7334 123.446C38.325 116.208 37.5362 108.97 35.4326 102.06C34.315 98.3095 32.7373 94.4271 33.4604 90.5447C34.315 86.3992 37.5362 83.1748 41.6119 82.3194C44.8988 81.7272 48.1856 82.7142 51.2753 83.8328C54.365 84.9515 57.5204 86.3334 60.8073 86.3992C64.0941 86.465 67.7097 84.9515 69.0245 81.9246L68.63 79.2925Z" fill="#1D2F38"/>
</g>
<defs>
<clipPath id="clip0_1_614">
<rect width="453" height="325" fill="white"/>
</clipPath>
</defs>
</svg>
